PathFileType	4	(X/Y/Z)	 s11c0303.trc
DataRate	CameraRate	NumFrames	NumMarkers	Units	OrigDataRate	OrigDataStartFrame	OrigNumFrames
200	200	5	48	mm	200	1001	2000
Frame#	Time	racr			lacr			c7			jug			rlel			rdr			llel			ldr			s2			lic			ric			lasi			rasi			rpsi			lpsi			rgt			lgt			rth1			rth2			rth3			rth4			rlfc			rmfc			rsh1			rsh2			rsh3			rsh4			rlmal			rcal			rtoe			rmt5			lth1			lth2			lth4			lth3			llfc			lmfc			llmal			lcal			lmt5			lsh1			lsh2			lsh3			lsh4			ltoe			SBIKE			LBIKE			RBIKE			
		X1	Y1	Z1	X2	Y2	Z2	X3	Y3	Z3	X4	Y4	Z4	X5	Y5	Z5	X6	Y6	Z6	X7	Y7	Z7	X8	Y8	Z8	X9	Y9	Z9	X10	Y10	Z10	X11	Y11	Z11	X12	Y12	Z12	X13	Y13	Z13	X14	Y14	Z14	X15	Y15	Z15	X16	Y16	Z16	X17	Y17	Z17	X18	Y18	Z18	X19	Y19	Z19	X20	Y20	Z20	X21	Y21	Z21	X22	Y22	Z22	X23	Y23	Z23	X24	Y24	Z24	X25	Y25	Z25	X26	Y26	Z26	X27	Y27	Z27	X28	Y28	Z28	X29	Y29	Z29	X30	Y30	Z30	X31	Y31	Z31	X32	Y32	Z32	X33	Y33	Z33	X34	Y34	Z34	X35	Y35	Z35	X36	Y36	Z36	X37	Y37	Z37	X38	Y38	Z38	X39	Y39	Z39	X40	Y40	Z40	X41	Y41	Z41	X42	Y42	Z42	X43	Y43	Z43	X44	Y44	Z44	X45	Y45	Z45	X46	Y46	Z46	X47	Y47	Z47	X48	Y48	Z48	
1001	5.0050	828.501258	1379.971657	-21.542662	789.742944	1446.127199	-361.908347	774.911797	1520.077655	-175.832482	793.241555	1341.599728	-217.058614	671.274187	1145.255420	77.938845	802.859986	932.188992	-31.914039	697.443807	1195.712858	-542.341627	822.623952	922.896453	-431.017951	190.263464	1278.483186	-181.039919	403.539162	1330.731385	-378.263432	429.280119	1214.799429	-2.045926	431.031633	1249.537360	-355.665776	449.997319	1163.705929	-54.287037	245.261841	1337.529979	-108.987233	239.245012	1353.833375	-198.583171	315.959618	1087.828184	2.464394	312.618383	1204.114473	-413.597496	332.031023	960.309509	-6.368392	364.553886	879.675012	-28.985497	351.945127	796.338677	-54.340377	399.326749	886.358518	-38.727228	366.927766	699.209385	-82.197451	352.823873	684.169769	-204.590731	309.993288	550.612604	-66.533210	305.255127	464.331472	-84.124744	259.726701	389.854563	-85.445933	330.077877	459.793939	-115.289798	210.638468	262.656846	-95.775050	146.384567	266.610298	-145.088498	408.042642	145.290928	-133.121665	331.407721	141.570001	-65.618181	426.347129	1110.237035	-443.728753	500.253248	1066.262532	-442.091692	525.295027	1087.889507	-425.237333	545.751797	989.556500	-454.654460	612.514710	873.189491	-444.789021	626.191032	848.889548	-317.449316	247.936930	652.353097	-412.350788	186.300228	666.619369	-375.317648	263.248129	472.822829	-438.297409	507.233867	808.836427	-460.970507	451.677852	745.852805	-443.595905	368.831218	716.124983	-435.576599	472.440856	720.698921	-423.579504	335.461835	407.164167	-371.413813	-203.896266	950.386493	-261.188545	1.369797	82.840499	-460.617378	-15.343472	81.060255	-62.072186	
1002	5.0100	829.247401	1384.161041	-24.103172	786.853029	1448.265768	-365.579322	774.049467	1522.046427	-179.144562	792.763168	1343.994019	-219.335205	674.479974	1147.598051	76.354031	803.716861	932.260468	-31.877970	691.799212	1194.221141	-543.262636	821.132804	921.619793	-428.124066	190.951785	1277.589534	-177.192892	399.788244	1333.299723	-378.183829	432.238937	1214.910965	-2.402475	429.088022	1251.782979	-356.739225	451.904661	1165.285610	-55.016174	246.980040	1336.606206	-105.177579	240.484328	1352.773135	-196.103173	316.387081	1086.675264	1.211105	311.088407	1205.627957	-411.394871	329.443817	960.176195	-6.868511	360.330840	878.776790	-29.117752	346.015160	795.571565	-54.008603	395.161861	884.899031	-39.266458	359.608009	698.555874	-83.049265	343.414940	684.466105	-205.439807	301.530031	550.565208	-66.756566	296.680297	464.283270	-84.329364	251.119054	389.838089	-85.285848	321.534336	459.761655	-115.342297	202.011849	261.783957	-96.505891	138.808739	267.359055	-145.121247	398.085414	141.035075	-133.419447	321.396536	138.735656	-65.913476	426.990559	1113.735921	-443.646236	501.652840	1071.046607	-442.463481	526.401075	1092.963406	-425.783129	548.251009	995.283737	-456.131572	618.910195	879.908407	-446.345359	633.319305	855.148338	-317.756607	256.840801	654.297429	-412.176571	195.369501	668.441983	-375.316021	273.879092	475.170656	-437.968038	514.965629	814.734971	-461.184823	460.025224	750.939636	-444.061046	377.417945	720.561285	-435.850087	481.092864	725.861517	-424.446210	346.404437	410.378971	-371.110745	-204.352980	950.589369	-260.152734	1.379288	82.839454	-460.631979	-15.264128	81.066066	-62.151530	
1003	5.0150	829.942325	1388.160507	-26.635738	783.899022	1450.054721	-369.416526	773.868523	1522.558452	-181.647098	792.187324	1345.929529	-221.432209	677.566842	1149.810376	74.569622	804.503058	932.313489	-31.942829	686.047178	1192.458987	-544.094258	822.169247	923.795916	-430.811940	191.646199	1277.121500	-173.595554	396.015059	1336.055442	-378.587366	435.024926	1215.005835	-3.015917	427.270840	1253.546438	-358.353916	453.674374	1166.923045	-56.065827	248.125817	1336.185072	-101.134392	240.595424	1351.814111	-192.768230	317.063739	1085.765688	0.429812	309.407215	1207.327440	-409.917036	327.285216	960.590168	-7.012534	356.575183	878.722481	-29.031983	340.709259	795.646375	-53.295942	391.137262	884.157410	-39.668975	352.853343	698.530197	-83.688234	335.400694	685.812493	-207.323727	293.433199	551.169008	-66.851481	288.409978	464.904791	-84.339983	242.707403	390.496501	-85.307946	313.476385	460.219702	-115.154752	194.596246	262.600353	-95.924245	131.411143	269.138394	-145.106211	387.981365	137.376052	-133.779546	311.333003	136.613698	-66.164909	427.218878	1117.065110	-443.450078	502.618480	1075.564923	-442.852508	527.498091	1098.356768	-427.262385	550.171712	1000.561303	-456.785702	625.223410	885.860125	-446.636447	640.168965	861.376699	-318.269576	265.676781	655.574955	-412.101048	204.358957	669.413210	-375.229186	284.325887	476.842605	-437.682876	522.700288	820.147312	-461.021177	468.325801	755.707661	-444.540340	386.132594	724.167023	-436.018076	489.722518	730.726027	-425.046905	357.562867	412.791105	-370.643510	-204.417816	950.589295	-260.148265	1.364684	82.869543	-460.621282	-15.276720	81.067277	-62.146610	
1004	5.0200	830.538303	1391.815946	-29.050999	780.892650	1451.313867	-373.166315	773.907639	1522.591739	-183.901881	791.408682	1347.411716	-223.430225	680.620572	1151.864909	73.027246	805.292315	932.355618	-31.907975	680.302027	1190.578527	-544.996001	821.988523	924.225445	-430.500596	192.300008	1276.779127	-169.935900	392.589297	1338.461964	-378.379747	437.656555	1215.224077	-3.832397	425.006318	1254.859567	-360.085036	455.095972	1168.690446	-57.310194	249.837083	1335.565789	-97.378113	240.966481	1351.024190	-189.198522	317.927603	1085.240408	0.265242	307.687900	1209.322966	-409.117364	325.787064	961.748484	-6.510818	353.461510	879.385531	-28.820379	336.048662	796.499993	-52.513659	387.984917	884.285244	-39.988751	346.688076	698.950777	-84.349344	328.924213	687.817479	-209.544411	285.968179	552.185798	-66.785321	280.791537	465.829306	-84.226276	234.704598	391.785302	-85.302633	306.049045	461.069637	-114.740492	186.959803	263.774652	-96.046331	124.309692	271.595690	-145.230626	378.375030	134.699209	-133.550722	301.209428	135.017526	-66.523234	427.214891	1119.993897	-443.290922	503.321233	1079.942642	-443.264220	528.040079	1103.142588	-428.134351	552.014232	1005.693950	-457.558393	630.958276	892.171959	-447.192308	646.693726	867.649596	-318.638360	274.298714	656.347405	-412.000123	212.847610	669.753702	-375.439999	295.046879	478.108167	-437.508744	529.886607	825.280151	-461.334278	476.551135	759.848284	-445.029785	394.848141	727.186896	-436.331457	498.348965	735.257626	-425.492446	368.898576	414.834318	-369.855933	-204.484839	950.634154	-260.176354	1.352142	82.879743	-460.623928	-15.282144	81.087889	-62.183848	
1005	5.0250	831.107625	1395.109877	-31.478709	777.990546	1452.253172	-377.067327	773.703497	1522.855444	-186.429680	790.464392	1348.453975	-225.382070	683.322802	1154.111192	71.338671	806.003374	932.331728	-31.946019	674.164918	1188.638336	-545.262905	821.675751	924.900193	-430.470097	192.844049	1276.544720	-166.251546	389.342034	1340.694387	-378.123510	440.195275	1215.633625	-4.720756	422.075861	1256.164118	-361.501747	455.906037	1170.278352	-60.038446	250.965169	1335.902389	-93.628171	240.764077	1350.896582	-185.391178	318.863270	1084.923594	0.718548	306.120375	1211.490888	-408.713086	323.940280	963.457838	-6.652118	350.899995	880.731361	-28.299765	332.127673	798.125771	-51.708187	385.331466	885.097657	-39.675496	341.353077	699.848382	-84.366379	324.206954	689.471221	-210.319804	279.432455	553.592067	-66.613218	273.896514	467.231750	-84.057710	227.566427	393.371434	-85.275055	299.456137	462.415209	-114.233258	179.721470	265.700057	-96.230424	117.672693	274.990979	-145.449890	367.633216	131.563458	-134.577725	291.062975	134.034928	-66.856185	426.963240	1122.679194	-443.271367	503.699248	1083.846462	-443.668697	528.199935	1107.613506	-428.923733	553.568290	1010.360239	-458.062597	636.444017	898.012960	-447.145946	652.883394	873.784907	-319.000279	282.733840	656.507937	-412.185144	220.917649	669.433128	-375.611565	305.864562	478.758173	-437.273697	536.870966	829.884029	-461.596004	484.606106	763.616478	-445.332540	403.488951	729.471699	-436.660471	506.813076	739.441686	-425.644101	380.267129	416.625146	-369.501624	-204.573314	950.637860	-260.256721	1.335344	82.904578	-460.619360	-15.281073	81.098424	-62.197332	
